<svg xmlns="http://www.w3.org/2000/svg" xmlns:xlink="http://www.w3.org/1999/xlink" width="2000" zoomAndPan="magnify" viewBox="0 0 1500 1499.999933" height="2000" preserveAspectRatio="xMidYMid meet" version="1.0">
<defs>
<linearGradient id="condomioGradient" x1="0%" y1="100%" x2="100%" y2="0%">
<stop offset="0%" stop-color="#4F46E5"/>
<stop offset="52%" stop-color="#7C3AED"/>
<stop offset="100%" stop-color="#A855F7"/>
</linearGradient>
<clipPath id="eee6050f57">
<path d="M 0 0.121094 L 705 0.121094 L 705 570 L 0 570 Z M 0 0.121094 " clip-rule="nonzero"/>
</clipPath>
<clipPath id="7726017c89">
<path d="M 0.75 336.417969 L 565.9375 0.34375 L 704.332031 233.089844 L 139.144531 569.164062 Z M 0.75 336.417969 " clip-rule="nonzero"/>
</clipPath>
<clipPath id="124f9370b8">
<path d="M 0.71875 0.121094 L 704.398438 0.121094 L 704.398438 569.398438 L 0.71875 569.398438 Z M 0.71875 0.121094 " clip-rule="nonzero"/>
</clipPath>
<clipPath id="6a66a26492">
<path d="M 0.75 336.417969 L 565.9375 0.34375 L 704.332031 233.089844 L 139.144531 569.164062 Z M 0.75 336.417969 " clip-rule="nonzero"/>
</clipPath>
<clipPath id="9bdbcdf41d">
<rect x="0" width="705" y="0" height="570"/>
</clipPath>
<clipPath id="c2cca9bee7">
<path d="M 0.761719 336.492188 L 264.976562 336.492188 L 264.976562 1022.644531 L 0.761719 1022.644531 Z M 0.761719 336.492188 " clip-rule="nonzero"/>
</clipPath>
<clipPath id="bd47053f90">
<path d="M 0.761719 0.492188 L 264.976562 0.492188 L 264.976562 686.644531 L 0.761719 686.644531 Z M 0.761719 0.492188 " clip-rule="nonzero"/>
</clipPath>
<clipPath id="998e5eb677">
<rect x="0" width="265" y="0" height="687"/>
</clipPath>
<clipPath id="b82a60c0ea">
<path d="M 0 796 L 705 796 L 705 1361.878906 L 0 1361.878906 Z M 0 796 " clip-rule="nonzero"/>
</clipPath>
<clipPath id="d621c45e80">
<path d="M 568.382812 1361.640625 L 0.738281 1026.871094 L 136.675781 796.371094 L 704.324219 1131.140625 Z M 568.382812 1361.640625 " clip-rule="nonzero"/>
</clipPath>
<clipPath id="b35bd3101f">
<path d="M 1 0.199219 L 704.398438 0.199219 L 704.398438 565.878906 L 1 565.878906 Z M 1 0.199219 " clip-rule="nonzero"/>
</clipPath>
<clipPath id="5cf998a5a0">
<path d="M 568.382812 565.640625 L 0.738281 230.871094 L 136.675781 0.371094 L 704.324219 335.140625 Z M 568.382812 565.640625 " clip-rule="nonzero"/>
</clipPath>
<clipPath id="83252267d3">
<rect x="0" width="705" y="0" height="566"/>
</clipPath>
<clipPath id="253f5d82a0">
<path d="M 431 0.121094 L 1061 0.121094 L 1061 508 L 431 508 Z M 431 0.121094 " clip-rule="nonzero"/>
</clipPath>
<clipPath id="cb3d46c239">
<path d="M 431.496094 233.855469 L 565.804688 0.328125 L 1127.730469 323.507812 L 993.421875 557.035156 Z M 431.496094 233.855469 " clip-rule="nonzero"/>
</clipPath>
<clipPath id="32a5980f3e">
<path d="M 565.804688 0.328125 L 1041.941406 274.167969 L 1060.101562 439.996094 L 907.632812 507.695312 L 431.496094 233.855469 Z M 565.804688 0.328125 " clip-rule="nonzero"/>
</clipPath>
<clipPath id="25577bc1b4">
<path d="M 0.28125 0.121094 L 629.320312 0.121094 L 629.320312 507.71875 L 0.28125 507.71875 Z M 0.28125 0.121094 " clip-rule="nonzero"/>
</clipPath>
<clipPath id="232a06dfda">
<path d="M 0.496094 233.855469 L 134.804688 0.328125 L 696.730469 323.507812 L 562.421875 557.035156 Z M 0.496094 233.855469 " clip-rule="nonzero"/>
</clipPath>
<clipPath id="60f0956a7d">
<path d="M 134.804688 0.328125 L 610.941406 274.167969 L 629.101562 439.996094 L 476.632812 507.695312 L 0.496094 233.855469 Z M 134.804688 0.328125 " clip-rule="nonzero"/>
</clipPath>
<clipPath id="5c87757c75">
<rect x="0" width="630" y="0" height="508"/>
</clipPath>
<clipPath id="49f814e622">
<path d="M 419 830 L 1054 830 L 1054 1361.878906 L 419 1361.878906 Z M 419 830 " clip-rule="nonzero"/>
</clipPath>
<clipPath id="29ebaed31b">
<path d="M 567.335938 1361.625 L 419.324219 1113.566406 L 979.398438 779.386719 L 1127.410156 1027.445312 Z M 567.335938 1361.625 " clip-rule="nonzero"/>
</clipPath>
<clipPath id="cfea3ef9fc">
<path d="M 419.324219 1113.566406 L 893.871094 830.417969 L 1053.25 903.507812 L 1041.882812 1078.476562 L 567.335938 1361.625 Z M 419.324219 1113.566406 " clip-rule="nonzero"/>
</clipPath>
<clipPath id="72af7bfbfe">
<path d="M 0.28125 0.28125 L 634.359375 0.28125 L 634.359375 531.640625 L 0.28125 531.640625 Z M 0.28125 0.28125 " clip-rule="nonzero"/>
</clipPath>
<clipPath id="f812e560da">
<path d="M 148.335938 531.625 L 0.324219 283.566406 L 560.398438 -50.613281 L 708.410156 197.445312 Z M 148.335938 531.625 " clip-rule="nonzero"/>
</clipPath>
<clipPath id="aeae2c5f55">
<path d="M 0.324219 283.566406 L 474.871094 0.417969 L 634.25 73.507812 L 622.882812 248.476562 L 148.335938 531.625 Z M 0.324219 283.566406 " clip-rule="nonzero"/>
</clipPath>
<clipPath id="e6397f4c65">
<rect x="0" width="635" y="0" height="532"/>
</clipPath>
<clipPath id="d1a3129de1">
<path d="M 431.496094 706.277344 L 559.238281 706.277344 L 559.238281 1070.554688 L 431.496094 1070.554688 Z M 431.496094 706.277344 " clip-rule="nonzero"/>
</clipPath>
<clipPath id="1ebfce7e1b">
<path d="M 431.496094 980.605469 L 431.496094 706.613281 L 559.238281 796.5625 L 559.238281 1070.554688 Z M 431.496094 980.605469 " clip-rule="nonzero"/>
</clipPath>
<clipPath id="b61a35e584">
<path d="M 0.496094 0.441406 L 128.238281 0.441406 L 128.238281 364.554688 L 0.496094 364.554688 Z M 0.496094 0.441406 " clip-rule="nonzero"/>
</clipPath>
<clipPath id="de7aa0eb27">
<path d="M 0.496094 274.605469 L 0.496094 0.613281 L 128.238281 90.5625 L 128.238281 364.554688 Z M 0.496094 274.605469 " clip-rule="nonzero"/>
</clipPath>
<clipPath id="d50a480546">
<rect x="0" width="129" y="0" height="365"/>
</clipPath>
<clipPath id="e9ec193873">
<path d="M 329.171875 706.480469 L 431.484375 706.480469 L 431.484375 1070.566406 L 329.171875 1070.566406 Z M 329.171875 706.480469 " clip-rule="nonzero"/>
</clipPath>
<clipPath id="366e43f647">
<path d="M 329.171875 797.609375 L 329.171875 1070.566406 L 431.484375 979.582031 L 431.484375 706.625 Z M 329.171875 797.609375 " clip-rule="nonzero"/>
</clipPath>
<clipPath id="a7e379839a">
<path d="M 0.171875 0.480469 L 102.484375 0.480469 L 102.484375 364.566406 L 0.171875 364.566406 Z M 0.171875 0.480469 " clip-rule="nonzero"/>
</clipPath>
<clipPath id="80b2b9a49f">
<path d="M 0.171875 91.609375 L 0.171875 364.566406 L 102.484375 273.582031 L 102.484375 0.625 Z M 0.171875 91.609375 " clip-rule="nonzero"/>
</clipPath>
<clipPath id="876e0880e5">
<rect x="0" width="103" y="0" height="365"/>
</clipPath>
<clipPath id="3da66ad489">
<path d="M 495.367188 513.484375 L 651.371094 513.484375 L 651.371094 1079.003906 L 495.367188 1079.003906 Z M 495.367188 513.484375 " clip-rule="nonzero"/>
</clipPath>
<clipPath id="3693f28e3b">
<path d="M 495.367188 604.476562 L 495.367188 1079.003906 L 651.371094 988.019531 L 651.371094 513.492188 Z M 495.367188 604.476562 " clip-rule="nonzero"/>
</clipPath>
<clipPath id="dece5a5fc4">
<path d="M 0.367188 0.484375 L 156.371094 0.484375 L 156.371094 566.003906 L 0.367188 566.003906 Z M 0.367188 0.484375 " clip-rule="nonzero"/>
</clipPath>
<clipPath id="f0777d4c01">
<path d="M 0.367188 91.476562 L 0.367188 566.003906 L 156.371094 475.019531 L 156.371094 0.492188 Z M 0.367188 91.476562 " clip-rule="nonzero"/>
</clipPath>
<clipPath id="4d8022900b">
<rect x="0" width="157" y="0" height="567"/>
</clipPath>
<clipPath id="49cc90972c">
<path d="M 651.371094 513.109375 L 799.199219 513.109375 L 799.199219 1079.003906 L 651.371094 1079.003906 Z M 651.371094 513.109375 " clip-rule="nonzero"/>
</clipPath>
<clipPath id="4e20d79476">
<path d="M 651.371094 989.054688 L 651.371094 513.492188 L 799.199219 603.441406 L 799.199219 1079.003906 Z M 651.371094 989.054688 " clip-rule="nonzero"/>
</clipPath>
<clipPath id="3ddd145131">
<path d="M 0.371094 0.480469 L 148.199219 0.480469 L 148.199219 566.003906 L 0.371094 566.003906 Z M 0.371094 0.480469 " clip-rule="nonzero"/>
</clipPath>
<clipPath id="3d77b5e204">
<path d="M 0.371094 476.054688 L 0.371094 0.492188 L 148.199219 90.441406 L 148.199219 566.003906 Z M 0.371094 476.054688 " clip-rule="nonzero"/>
</clipPath>
<clipPath id="30dd0e3a67">
<rect x="0" width="149" y="0" height="567"/>
</clipPath>
<clipPath id="d1af8aa162">
<rect x="0" width="1128" y="0" height="1362"/>
</clipPath>
</defs>
<g transform="matrix(1, 0, 0, 1, 186, 69)">
<g clip-path="url(#d1af8aa162)">
<g clip-path="url(#eee6050f57)">
<g clip-path="url(#7726017c89)">
<g transform="matrix(1, 0, 0, 1, 0, 0.000000000000113687)">
<g clip-path="url(#9bdbcdf41d)">
<g clip-path="url(#124f9370b8)">
<g clip-path="url(#6a66a26492)">
<path fill="url(#condomioGradient)" d="M 0.75 336.417969 L 566.25 0.160156 L 704.644531 232.90625 L 139.144531 569.164062 Z M 0.75 336.417969 " fill-opacity="1" fill-rule="nonzero"/>
</g>
</g>
</g>
</g>
</g>
</g>
<g clip-path="url(#c2cca9bee7)">
<g transform="matrix(1, 0, 0, 1, 0, 336)">
<g clip-path="url(#998e5eb677)">
<g clip-path="url(#bd47053f90)">
<path fill="url(#condomioGradient)" d="M 0.761719 686.644531 L 0.761719 0.300781 L 264.976562 0.300781 L 264.976562 686.644531 Z M 0.761719 686.644531 " fill-opacity="1" fill-rule="nonzero"/>
</g>
</g>
</g>
</g>
<g clip-path="url(#b82a60c0ea)">
<g clip-path="url(#d621c45e80)">
<g transform="matrix(1, 0, 0, 1, 0, 796)">
<g clip-path="url(#83252267d3)">
<g clip-path="url(#b35bd3101f)">
<g clip-path="url(#5cf998a5a0)">
<path fill="url(#condomioGradient)" d="M 568.382812 565.640625 L 1.136719 231.105469 L 137.074219 0.605469 L 704.324219 335.140625 Z M 568.382812 565.640625 " fill-opacity="1" fill-rule="nonzero"/>
</g>
</g>
</g>
</g>
</g>
</g>
<g clip-path="url(#253f5d82a0)">
<g clip-path="url(#cb3d46c239)">
<g clip-path="url(#32a5980f3e)">
<g transform="matrix(1, 0, 0, 1, 431, 0.000000000000113687)">
<g clip-path="url(#5c87757c75)">
<g clip-path="url(#25577bc1b4)">
<g clip-path="url(#232a06dfda)">
<g clip-path="url(#60f0956a7d)">
<path fill="url(#condomioGradient)" d="M 0.496094 233.855469 L 134.804688 0.328125 L 695.816406 322.984375 L 561.511719 556.511719 Z M 0.496094 233.855469 " fill-opacity="1" fill-rule="nonzero"/>
</g>
</g>
</g>
</g>
</g>
</g>
</g>
</g>
<g clip-path="url(#49f814e622)">
<g clip-path="url(#29ebaed31b)">
<g clip-path="url(#cfea3ef9fc)">
<g transform="matrix(1, 0, 0, 1, 419, 830)">
<g clip-path="url(#e6397f4c65)">
<g clip-path="url(#72af7bfbfe)">
<g clip-path="url(#f812e560da)">
<g clip-path="url(#aeae2c5f55)">
<path fill="url(#condomioGradient)" d="M 148.335938 531.625 L 0.324219 283.566406 L 560.398438 -50.613281 L 708.410156 197.445312 Z M 148.335938 531.625 " fill-opacity="1" fill-rule="nonzero"/>
</g>
</g>
</g>
</g>
</g>
</g>
</g>
</g>
<g clip-path="url(#d1a3129de1)">
<g clip-path="url(#1ebfce7e1b)">
<g transform="matrix(1, 0, 0, 1, 431, 706)">
<g clip-path="url(#d50a480546)">
<g clip-path="url(#b61a35e584)">
<g clip-path="url(#de7aa0eb27)">
<path fill="url(#condomioGradient)" d="M 0.496094 364.554688 L 0.496094 0.777344 L 128.238281 0.777344 L 128.238281 364.554688 Z M 0.496094 364.554688 " fill-opacity="1" fill-rule="nonzero"/>
</g>
</g>
</g>
</g>
</g>
</g>
<g clip-path="url(#e9ec193873)">
<g clip-path="url(#366e43f647)">
<g transform="matrix(1, 0, 0, 1, 329, 706)">
<g clip-path="url(#876e0880e5)">
<g clip-path="url(#a7e379839a)">
<g clip-path="url(#80b2b9a49f)">
<path fill="url(#condomioGradient)" d="M 0.171875 364.566406 L 0.171875 0.480469 L 102.484375 0.480469 L 102.484375 364.566406 Z M 0.171875 364.566406 " fill-opacity="1" fill-rule="nonzero"/>
</g>
</g>
</g>
</g>
</g>
</g>
<g clip-path="url(#3da66ad489)">
<g clip-path="url(#3693f28e3b)">
<g transform="matrix(1, 0, 0, 1, 495, 513)">
<g clip-path="url(#4d8022900b)">
<g clip-path="url(#dece5a5fc4)">
<g clip-path="url(#f0777d4c01)">
<path fill="url(#condomioGradient)" d="M 0.367188 566.003906 L 0.367188 0.484375 L 156.371094 0.484375 L 156.371094 566.003906 Z M 0.367188 566.003906 " fill-opacity="1" fill-rule="nonzero"/>
</g>
</g>
</g>
</g>
</g>
</g>
<g clip-path="url(#49cc90972c)">
<g clip-path="url(#4e20d79476)">
<g transform="matrix(1, 0, 0, 1, 651, 513)">
<g clip-path="url(#30dd0e3a67)">
<g clip-path="url(#3ddd145131)">
<g clip-path="url(#3d77b5e204)">
<path fill="url(#condomioGradient)" d="M 0.371094 566.003906 L 0.371094 0.6875 L 148.199219 0.6875 L 148.199219 566.003906 Z M 0.371094 566.003906 " fill-opacity="1" fill-rule="nonzero"/>
</g>
</g>
</g>
</g>
</g>
</g>
</g>
</g>
</svg>
